# This file uses centimeters as units for non-parametric coordinates.

mtllib arm.mtl
g default
v -0.017422 0.741922 0.334396
v 0.066940 0.741922 0.334396
v -0.076415 1.043258 0.270689
v 0.074183 1.043258 0.270689
v -0.017422 0.741922 0.270689
v 0.066940 0.741922 0.270689
v -0.017395 0.703812 0.270689
v 0.060797 0.703812 0.270689
v 0.060797 0.703812 0.334396
v -0.017395 0.703812 0.334396
v -0.031954 0.452596 0.270689
v 0.029722 0.452596 0.270689
v 0.029722 0.452596 0.334396
v -0.031954 0.452596 0.334396
v -0.072634 0.940714 0.334396
v -0.072634 0.940714 0.270689
v 0.070402 0.940714 0.270689
v 0.070402 0.940714 0.334396
v 0.081372 1.050187 0.270689
v -0.083604 1.050187 0.270689
v -0.087012 0.940184 0.270689
v 0.084780 0.940184 0.270689
v 0.063044 0.950705 0.357300
v -0.065276 0.950705 0.357300
v 0.067172 1.041168 0.358184
v -0.069404 1.041168 0.358184
v 0.028439 0.974976 0.370288
v -0.030671 0.974976 0.370288
v 0.030341 1.016647 0.370695
v -0.032572 1.016647 0.370695
v -0.085008 1.051373 0.346239
v -0.081162 1.047864 0.358250
v 0.082776 1.051373 0.346239
v 0.078930 1.047864 0.358250
v -0.076914 0.942500 0.357219
v -0.080118 0.940438 0.345164
v -0.078753 0.940489 0.345317
v -0.076264 0.940449 0.357199
v 0.074682 0.942500 0.357219
v 0.074032 0.940449 0.357199
v 0.076521 0.940489 0.345317
v 0.077886 0.940438 0.345164
v -0.030140 0.499089 0.334396
v 0.033593 0.499089 0.334396
v 0.033593 0.499089 0.270689
v -0.030140 0.499089 0.270689
v -0.036020 0.499440 0.340287
v 0.039437 0.498344 0.340287
v -0.037834 0.469085 0.340287
v 0.035565 0.467989 0.340287
v 0.039437 0.498344 0.264799
v 0.035565 0.467989 0.264799
v -0.036020 0.499440 0.264799
v -0.037834 0.469085 0.264799
v -0.025718 0.733344 0.262393
v 0.074902 0.731023 0.262393
v 0.068758 0.710048 0.262393
v -0.025691 0.712369 0.262393
v 0.074902 0.731023 0.342692
v 0.068758 0.710048 0.342692
v -0.025718 0.733344 0.342692
v -0.025691 0.712369 0.342692
vt 0.375000 0.000000
vt 0.625000 0.000000
vt 0.375000 0.500000
vt 0.625000 0.500000
vt 0.375000 0.750000
vt 0.625000 0.750000
vt 0.375000 1.000000
vt 0.625000 1.000000
vt 0.875000 0.000000
vt 0.875000 0.250000
vt 0.125000 0.000000
vt 0.125000 0.250000
vt 0.375000 0.750000
vt 0.625000 0.750000
vt 0.625000 1.000000
vt 0.375000 1.000000
vt 0.375000 0.750000
vt 0.625000 0.750000
vt 0.625000 1.000000
vt 0.375000 1.000000
vt 0.125000 0.167278
vt 0.375000 0.582722
vt 0.625000 0.582722
vt 0.625000 0.500000
vt 0.125000 0.250000
vt 0.375000 0.167278
vt 0.625000 0.167278
vt 0.625000 0.250000
vt 0.375000 0.250000
vt 0.375000 0.167278
vt 0.380653 0.167278
vt 0.375000 0.167278
vt 0.625000 0.167278
vt 0.875000 0.167278
vt 0.375000 0.260144
vt 0.380558 0.250106
vt 0.364749 0.167278
vt 0.375000 0.167278
vt 0.635151 0.250000
vt 0.625000 0.167278
vt 0.635251 0.167278
vt 0.625000 0.260405
vt 0.375000 0.500000
vt 0.125000 0.167278
vt 0.364849 0.250000
vt 0.875000 0.167278
vt 0.875000 0.250000
vt 0.625000 0.249161
vt 0.625000 0.167278
vt 0.375000 0.249161
vt 0.625000 0.250000
vt 0.375000 0.250000
vt 0.375000 0.167278
vt 0.619345 0.167278
vt 0.625000 0.167278
vt 0.375000 1.000000
vt 0.625000 1.000000
vt 0.625000 0.750000
vt 0.375000 0.750000
vt 0.625000 1.000000
vt 0.375000 1.000000
vt 0.375000 1.000000
vt 0.625000 1.000000
vt 0.625000 0.750000
vt 0.625000 0.750000
vt 0.375000 0.750000
vt 0.375000 0.750000
vt 0.375000 0.750000
vt 0.625000 0.750000
vt 0.625000 0.750000
vt 0.375000 0.750000
vt 0.625000 1.000000
vt 0.625000 1.000000
vt 0.375000 1.000000
vt 0.375000 1.000000
vn 0.000000 0.000000 1.000000
vn 0.000000 0.000000 1.000000
vn 0.000000 0.000000 1.000000
vn 0.000000 0.000000 1.000000
vn 0.000000 0.000000 -1.000000
vn 0.000000 0.000000 -1.000000
vn 0.000000 0.000000 -1.000000
vn 0.000000 0.000000 -1.000000
vn 0.000000 -1.000000 0.000000
vn 0.000000 -1.000000 0.000000
vn 0.000000 -1.000000 0.000000
vn 0.000000 -1.000000 0.000000
vn 0.999848 -0.017411 0.000000
vn 0.999848 -0.017411 0.000000
vn 0.999848 -0.017411 0.000000
vn 0.999848 -0.017411 0.000000
vn -0.963528 -0.267606 0.000000
vn -0.963529 -0.267606 0.000000
vn -0.963529 -0.267606 0.000000
vn -0.963529 -0.267606 0.000000
vn 0.000000 0.000000 -1.000000
vn 0.000000 0.000000 -1.000000
vn 0.000000 0.000000 -1.000000
vn 0.000000 0.000000 -1.000000
vn 0.959681 -0.281091 0.000000
vn 0.959681 -0.281091 0.000000
vn 0.959681 -0.281091 0.000000
vn 0.959681 -0.281091 0.000000
vn 0.000000 0.000000 1.000000
vn 0.000000 0.000000 1.000000
vn 0.000000 0.000000 1.000000
vn 0.000000 0.000000 1.000000
vn -0.999999 -0.001288 0.000000
vn -0.999999 -0.001288 0.000000
vn -0.999999 -0.001288 0.000000
vn -0.999999 -0.001288 0.000000
vn 0.000000 0.000000 -1.000000
vn 0.000000 0.000000 -1.000000
vn 0.000000 0.000000 -1.000000
vn 0.000000 0.000000 -1.000000
vn 0.991287 -0.131720 0.000000
vn 0.991287 -0.131720 0.000000
vn 0.991287 -0.131720 0.000000
vn 0.991287 -0.131720 0.000000
vn 0.000000 0.000000 1.000000
vn 0.000000 0.000000 1.000000
vn 0.000000 0.000000 1.000000
vn 0.000000 0.000000 1.000000
vn -0.998068 0.062132 0.000000
vn -0.998068 0.062132 0.000000
vn -0.998068 0.062132 0.000000
vn -0.998068 0.062132 0.000000
vn 0.000000 0.000000 -1.000000
vn 0.000000 0.000000 -1.000000
vn 0.000000 0.000000 -1.000000
vn 0.000000 0.000000 -1.000000
vn 0.000000 -0.009780 0.999952
vn 0.000000 -0.009780 0.999952
vn 0.000000 -0.009780 0.999952
vn 0.000000 -0.009780 0.999952
vn 0.000000 -0.000004 -1.000000
vn 0.000000 -0.000004 -1.000000
vn 0.000000 -0.000004 -1.000000
vn 0.000000 -0.000004 -1.000000
vn 0.036844 -0.999321 0.000001
vn 0.036844 -0.999321 0.000001
vn 0.036844 -0.999321 0.000001
vn 0.036844 -0.999321 0.000001
vn 0.036844 -0.999321 0.000001
vn 0.000004 0.000000 -1.000000
vn 0.000004 0.000000 -1.000000
vn 0.000004 0.000000 -1.000000
vn 0.000004 0.000000 -1.000000
vn -0.036844 -0.999321 0.000002
vn -0.036844 -0.999321 0.000002
vn -0.036844 -0.999321 0.000002
vn -0.036844 -0.999321 0.000002
vn -0.036844 -0.999321 0.000002
vn -0.000002 0.000000 -1.000000
vn -0.000002 0.000000 -1.000000
vn -0.000002 0.000000 -1.000000
vn -0.000002 0.000000 -1.000000
vn 0.000000 -0.999934 -0.011522
vn 0.000000 -0.999934 -0.011522
vn 0.000000 -0.999934 -0.011522
vn 0.000000 -0.999934 -0.011522
vn 0.000000 -0.999934 -0.011522
vn 0.000000 -0.999934 -0.011522
vn 0.000000 -0.471810 0.881701
vn 0.000000 -0.471810 0.881701
vn 0.000000 -0.471810 0.881700
vn 0.000000 -0.471810 0.881700
vn 0.336142 -0.024548 0.941491
vn 0.336142 -0.024548 0.941491
vn 0.336142 -0.024548 0.941491
vn 0.336142 -0.024548 0.941491
vn 0.000000 0.454473 0.890760
vn 0.000000 0.454474 0.890760
vn 0.000000 0.454473 0.890760
vn 0.000000 0.454473 0.890760
vn -0.336142 -0.024548 0.941491
vn -0.336142 -0.024548 0.941491
vn -0.336142 -0.024548 0.941491
vn -0.336142 -0.024548 0.941491
vn 0.000000 -0.009781 0.999952
vn 0.000000 -0.009781 0.999952
vn 0.000000 -0.009781 0.999952
vn 0.000000 -0.009781 0.999952
vn 0.000000 -0.009781 0.999952
vn 0.000000 -0.009781 0.999952
vn 0.000000 0.959876 0.280424
vn 0.000000 0.959876 0.280425
vn 0.000000 0.959876 0.280424
vn 0.000000 0.959876 0.280424
vn -0.959472 -0.043244 0.278468
vn -0.959472 -0.043244 0.278468
vn -0.959472 -0.043244 0.278468
vn -0.959472 -0.043244 0.278468
vn 0.959471 -0.043244 0.278468
vn 0.959471 -0.043244 0.278468
vn 0.959471 -0.043244 0.278468
vn 0.959472 -0.043244 0.278468
vn 0.000000 0.999877 -0.015708
vn 0.000000 0.999877 -0.015708
vn 0.000000 0.999877 -0.015708
vn 0.000000 0.999877 -0.015708
vn -0.999305 -0.006879 0.036637
vn -0.999305 -0.006879 0.036637
vn -0.999305 -0.006879 0.036637
vn -0.999305 -0.006879 0.036637
vn 0.999305 -0.006879 0.036637
vn 0.999305 -0.006879 0.036637
vn 0.999305 -0.006879 0.036637
vn 0.999305 -0.006879 0.036637
vn 0.000001 -0.009780 0.999952
vn 0.000001 -0.009780 0.999952
vn 0.000001 -0.009780 0.999952
vn 0.000001 -0.009780 0.999952
vn 0.000000 -0.009778 0.999952
vn 0.000000 -0.009778 0.999952
vn 0.000000 -0.009778 0.999952
vn 0.000000 -0.009778 0.999952
vn -0.000001 -0.009780 0.999952
vn -0.000001 -0.009780 0.999952
vn -0.000001 -0.009780 0.999952
vn -0.000001 -0.009780 0.999952
vn -0.694140 -0.684456 0.222911
vn -0.694140 -0.684456 0.222911
vn -0.694140 -0.684456 0.222911
vn -0.694140 -0.684456 0.222911
vn 0.694142 -0.684457 0.222901
vn 0.694142 -0.684457 0.222901
vn 0.694142 -0.684457 0.222901
vn 0.694142 -0.684457 0.222901
vn 0.000000 0.000000 1.000000
vn 0.000000 0.000000 1.000000
vn 0.000000 0.000000 1.000000
vn 0.000000 0.000000 1.000000
vn 0.991965 -0.126516 0.000000
vn 0.991965 -0.126516 0.000000
vn 0.991965 -0.126516 0.000000
vn 0.991965 -0.126516 0.000000
vn -0.000000 0.000000 -1.000000
vn -0.000000 0.000000 -1.000000
vn -0.000000 0.000000 -1.000000
vn -0.000000 0.000000 -1.000000
vn -0.998220 0.059646 0.000000
vn -0.998220 0.059646 0.000000
vn -0.998220 0.059646 0.000000
vn -0.998220 0.059646 0.000000
vn 0.007874 0.999410 0.033443
vn 0.007874 0.999410 0.033443
vn 0.007874 0.999410 0.033443
vn 0.007874 0.999410 0.033443
vn -0.002814 -0.346610 0.938005
vn -0.002814 -0.346610 0.938005
vn -0.002814 -0.346610 0.938005
vn -0.002814 -0.346610 0.938005
vn 0.126516 0.991965 0.000000
vn 0.126516 0.991965 0.000000
vn 0.126516 0.991965 0.000000
vn 0.126516 0.991965 0.000000
vn 0.934907 -0.354893 0.000000
vn 0.934907 -0.354893 0.000000
vn 0.934907 -0.354893 0.000000
vn 0.934907 -0.354893 0.000000
vn 0.007874 0.999410 -0.033436
vn 0.007874 0.999410 -0.033436
vn 0.007874 0.999410 -0.033436
vn 0.007874 0.999410 -0.033436
vn -0.002814 -0.346610 -0.938005
vn -0.002814 -0.346610 -0.938005
vn -0.002814 -0.346610 -0.938005
vn -0.002814 -0.346610 -0.938005
vn 0.059646 0.998220 0.000000
vn 0.059646 0.998220 0.000000
vn 0.059646 0.998220 0.000000
vn 0.059646 0.998220 0.000000
vn -0.941906 -0.335876 0.000000
vn -0.941906 -0.335876 0.000000
vn -0.941906 -0.335876 0.000000
vn -0.941906 -0.335876 0.000000
vn 0.008136 0.648364 -0.761287
vn 0.008136 0.648364 -0.761287
vn 0.008136 0.648364 -0.761287
vn 0.008136 0.648364 -0.761287
vn -0.010037 -0.746492 -0.665319
vn -0.010037 -0.746492 -0.665319
vn -0.010037 -0.746492 -0.665319
vn -0.010037 -0.746492 -0.665319
vn 0.807511 0.589853 0.000000
vn 0.807511 0.589853 0.000000
vn 0.807511 0.589853 0.000000
vn 0.807511 0.589853 0.000000
vn 0.616601 -0.787276 0.000000
vn 0.616601 -0.787276 0.000000
vn 0.616601 -0.787276 0.000000
vn 0.616601 -0.787276 0.000000
vn 0.008136 0.648362 0.761289
vn 0.008136 0.648362 0.761288
vn 0.008136 0.648362 0.761289
vn 0.008136 0.648362 0.761289
vn -0.010037 -0.746492 0.665319
vn -0.010037 -0.746492 0.665319
vn -0.010037 -0.746492 0.665319
vn -0.010037 -0.746492 0.665319
vn -0.718828 0.695188 0.000000
vn -0.718828 0.695188 0.000000
vn -0.718828 0.695188 0.000000
vn -0.718828 0.695188 0.000000
vn -0.717962 -0.696082 0.000000
vn -0.717962 -0.696082 0.000000
vn -0.717962 -0.696082 0.000000
vn -0.717962 -0.696082 0.000000
s off
g pCube8
usemtl initialShadingGroup
f 1/1/1 2/2/2 18/33/3 15/30/4
f 16/22/5 17/23/6 6/6/7 5/5/8
f 11/17/9 12/18/10 13/19/11 14/20/12
f 2/2/13 6/9/14 17/34/15 18/33/16
f 5/11/17 1/1/18 15/30/19 16/21/20
f 55/68/21 56/69/22 57/70/23 58/71/24
f 56/69/25 59/72/26 60/73/27 57/70/28
f 59/72/29 61/74/30 62/75/31 60/73/32
f 61/74/33 55/68/34 58/71/35 62/75/36
f 7/13/37 8/14/38 45/58/39 46/59/40
f 8/14/41 9/15/42 44/57/43 45/58/44
f 9/15/45 10/16/46 43/56/47 44/57/48
f 10/16/49 7/13/50 46/59/51 43/56/52
f 3/3/53 4/4/54 17/23/55 16/22/56
f 28/26/57 27/27/58 29/28/59 30/29/60
f 4/4/61 3/3/62 20/43/63 19/24/64
f 16/21/65 15/30/66 37/53/67 36/37/68 21/44/69
f 3/12/70 16/21/71 21/44/72 20/25/73
f 18/33/74 17/34/75 22/46/76 42/41/77 41/55/78
f 17/34/79 4/10/80 19/47/81 22/46/82
f 15/30/83 18/33/84 41/55/85 40/54/86 38/31/87 37/53/88
f 24/32/89 23/49/90 27/27/91 28/26/92
f 23/49/93 25/51/94 29/28/95 27/27/96
f 25/51/97 26/52/98 30/29/99 29/28/100
f 26/52/101 24/32/102 28/26/103 30/29/104
f 35/38/105 38/31/106 40/54/107 39/40/108 23/49/109 24/32/110
f 31/35/111 32/36/112 34/48/113 33/42/114
f 32/50/115 31/45/116 36/37/117 35/38/118
f 33/39/119 34/48/120 39/40/121 42/41/122
f 31/35/123 33/42/124 19/24/125 20/43/126
f 21/44/127 36/37/128 31/45/129 20/25/130
f 33/39/131 42/41/132 22/46/133 19/47/134
f 39/40/135 34/48/136 25/51/137 23/49/138
f 34/48/139 32/50/140 26/52/141 25/51/142
f 32/50/143 35/38/144 24/32/145 26/52/146
f 35/38/147 36/37/148 37/53/149 38/31/150
f 39/40/151 40/54/152 41/55/153 42/41/154
f 48/60/155 47/61/156 49/62/157 50/63/158
f 51/64/159 48/60/160 50/63/161 52/65/162
f 53/66/163 51/64/164 52/65/165 54/67/166
f 47/61/167 53/66/168 54/67/169 49/62/170
f 44/57/171 43/56/172 47/61/173 48/60/174
f 14/20/175 13/19/176 50/63/177 49/62/178
f 45/58/179 44/57/180 48/60/181 51/64/182
f 13/19/183 12/18/184 52/65/185 50/63/186
f 46/59/187 45/58/188 51/64/189 53/66/190
f 12/18/191 11/17/192 54/67/193 52/65/194
f 43/56/195 46/59/196 53/66/197 47/61/198
f 11/17/199 14/20/200 49/62/201 54/67/202
f 5/5/203 6/6/204 56/69/205 55/68/206
f 8/14/207 7/13/208 58/71/209 57/70/210
f 6/6/211 2/8/212 59/72/213 56/69/214
f 9/15/215 8/14/216 57/70/217 60/73/218
f 2/8/219 1/7/220 61/74/221 59/72/222
f 10/16/223 9/15/224 60/73/225 62/75/226
f 1/7/227 5/5/228 55/68/229 61/74/230
f 7/13/231 10/16/232 62/75/233 58/71/234
