# This file uses centimeters as units for non-parametric coordinates.

mtllib chest.mtl
g default
v -0.089876 0.609141 0.179998
v -0.101260 0.609196 0.168980
v -0.089862 0.491167 0.167441
v 0.079141 0.491167 0.167441
v 0.090539 0.609196 0.168980
v 0.079879 0.609141 0.179998
v 0.102395 0.760530 0.208483
v 0.112703 0.760475 0.198105
v -0.089862 0.491167 -0.167441
v -0.101260 0.609196 -0.168980
v -0.089876 0.609141 -0.179998
v 0.079879 0.609141 -0.179998
v 0.090539 0.609196 -0.168980
v 0.079141 0.491167 -0.167441
v -0.099150 0.760530 -0.208483
v -0.109457 0.760475 -0.198105
v 0.112703 0.760475 -0.198105
v 0.102395 0.760530 -0.208483
v -0.109457 0.760475 0.198105
v -0.099150 0.760530 0.208483
v 0.151921 1.053456 -0.247394
v 0.164029 1.049526 -0.251071
v 0.153525 1.049524 -0.261572
v -0.143240 1.049526 -0.251071
v -0.131132 1.053456 -0.247394
v -0.132945 1.049524 -0.261572
v 0.136416 0.830981 -0.222184
v 0.126112 0.830984 -0.232487
v -0.133171 0.830981 -0.222184
v -0.122867 0.830984 -0.232487
v 0.126112 0.830984 0.232487
v 0.136416 0.830981 0.222184
v 0.151921 1.053456 0.247394
v 0.153525 1.049524 0.261572
v 0.164029 1.049526 0.251071
v -0.133171 0.830981 0.222184
v -0.122867 0.830984 0.232487
v -0.131132 1.053456 0.247394
v -0.143240 1.049526 0.251071
v -0.132945 1.049524 0.261572
v -0.113015 0.527661 0.178937
v -0.140811 0.551520 0.162944
v -0.140811 0.551520 -0.162944
v -0.113015 0.527661 -0.178937
v -0.097762 0.550795 0.207042
v 0.102418 0.527661 0.178937
v 0.088392 0.550278 0.205764
v 0.130874 0.551003 0.161665
v 0.102418 0.527661 -0.178937
v 0.130874 0.551003 -0.161665
v -0.097762 0.550795 -0.207042
v 0.088392 0.550278 -0.205764
v 0.108155 0.760477 0.223250
v 0.131872 0.793424 0.247254
v -0.128626 0.793424 0.247254
v -0.104909 0.760477 0.223250
v 0.127499 0.760473 -0.203863
v 0.151212 0.793473 -0.227942
v 0.151212 0.793473 0.227942
v 0.127499 0.760473 0.203863
v -0.104909 0.760477 -0.223250
v -0.128626 0.793424 -0.247254
v 0.131872 0.793424 -0.247254
v 0.108155 0.760477 -0.223250
v -0.124253 0.760473 0.203863
v -0.147967 0.793473 0.227942
v -0.147967 0.793473 -0.227942
v -0.124253 0.760473 -0.203863
v -0.139332 1.001533 -0.242957
v -0.139332 1.001533 0.242957
v -0.129204 1.001531 0.253259
v 0.147377 1.001531 0.253259
v 0.157682 1.001533 0.242957
v 0.157682 1.001533 -0.242957
v 0.147377 1.001531 -0.253259
v -0.129204 1.001531 -0.253259
v 0.170850 1.041671 0.250329
v 0.167415 1.012151 0.246974
v 0.167415 1.012151 -0.246974
v 0.170850 1.041671 -0.250329
v 0.151393 1.012164 -0.262995
v -0.133289 1.012493 -0.262988
v -0.134313 1.042012 -0.266343
v 0.154828 1.041684 -0.266350
v -0.149169 1.012951 -0.246967
v -0.149169 1.012951 0.246967
v -0.150165 1.042471 0.250322
v -0.150165 1.042471 -0.250322
v 0.154828 1.041684 0.266350
v -0.134313 1.042012 0.266343
v -0.133289 1.012493 0.262988
v 0.151393 1.012164 0.262995
vt 0.681173 0.421273
vt 0.681173 0.727178
vt 0.564373 0.704692
vt 0.564373 0.443760
vt 0.564331 0.713199
vt 0.681215 0.735191
vt 0.519843 0.700031
vt 0.519843 0.448420
vt 0.564331 0.435253
vt 0.681215 0.413260
vt 0.519283 0.734079
vt 0.501422 0.436072
vt 0.501422 0.712379
vt 0.519283 0.414373
vt 0.473246 0.703503
vt 0.473246 0.444948
vt 0.111742 0.425825
vt 0.242225 0.425825
vt 0.242225 0.684380
vt 0.111742 0.684380
vt 0.260197 0.416949
vt 0.260197 0.693255
vt 0.282167 0.679920
vt 0.282167 0.430284
vt 0.604422 0.829947
vt 0.621805 0.946831
vt 0.466197 0.946831
vt 0.473357 0.829947
vt 0.612652 0.829989
vt 0.629764 0.946789
vt 0.467269 0.784899
vt 0.610994 0.784500
vt 0.643794 0.785060
vt 0.455492 0.767038
vt 0.621824 0.767038
vt 0.473368 0.738862
vt 0.603852 0.738862
vt 0.350762 0.443760
vt 0.467561 0.421273
vt 0.467561 0.727178
vt 0.350762 0.704692
vt 0.350719 0.435253
vt 0.467603 0.413260
vt 0.305832 0.699044
vt 0.305832 0.449407
vt 0.305272 0.415360
vt 0.287810 0.436072
vt 0.661570 0.790039
vt 0.817178 0.790039
vt 0.799794 0.906923
vt 0.668730 0.906923
vt 0.806367 0.952370
vt 0.662642 0.951970
vt 0.650865 0.969832
vt 0.817196 0.969832
vt 0.799224 0.998008
vt 0.668741 0.998008
vt 0.218939 0.400909
vt 0.196148 0.398318
vt 0.196148 0.016952
vt 0.218939 0.014361
vt 0.196158 0.410688
vt 0.218949 0.413278
vt 0.187950 0.395217
vt 0.187950 0.020053
vt 0.218949 0.001992
vt 0.196158 0.004582
vt 0.225004 0.013788
vt 0.225004 0.401482
vt 0.187948 0.403171
vt 0.225002 0.409589
vt 0.056270 0.379179
vt 0.056270 0.036091
vt 0.187948 0.012099
vt 0.225002 0.005681
vt 0.056272 0.387133
vt 0.027310 0.383624
vt 0.027310 0.031646
vt 0.056272 0.028137
vt 0.027273 0.398534
vt 0.001832 0.050237
vt 0.001832 0.365033
vt 0.027273 0.016736
vt 0.030678 0.699578
vt 0.030425 0.919375
vt 0.007634 0.920166
vt 0.007887 0.696926
vt 0.038888 0.702679
vt 0.038888 0.916221
vt 0.007280 0.932405
vt 0.030071 0.931636
vt 0.001834 0.919109
vt 0.001834 0.697933
vt 0.170564 0.719097
vt 0.170564 0.911329
vt 0.038887 0.924041
vt 0.001832 0.927058
vt 0.199563 0.714650
vt 0.199563 0.915775
vt 0.170566 0.919284
vt 0.225001 0.897464
vt 0.225001 0.732962
vt 0.199526 0.930708
vt 0.246135 0.398643
vt 0.246135 0.016627
vt 0.464674 0.016627
vt 0.464674 0.398643
vt 0.236787 0.401482
vt 0.236787 0.013788
vt 0.465912 0.005681
vt 0.244735 0.005681
vt 0.474022 0.401482
vt 0.474022 0.013788
vt 0.465912 0.409589
vt 0.244735 0.409589
vt 0.231440 0.400904
vt 0.231440 0.014367
vt 0.243679 0.001997
vt 0.466918 0.001992
vt 0.675518 0.398308
vt 0.675518 0.016952
vt 0.698310 0.014361
vt 0.698310 0.400898
vt 0.666703 0.395211
vt 0.666703 0.020048
vt 0.675165 0.004582
vt 0.697956 0.001992
vt 0.535024 0.379174
vt 0.535024 0.036086
vt 0.666702 0.012094
vt 0.506064 0.383619
vt 0.506064 0.031640
vt 0.535025 0.028131
vt 0.480585 0.050231
vt 0.480585 0.365028
vt 0.506027 0.016730
vt 0.448554 0.730849
vt 0.448807 0.954089
vt 0.426016 0.953298
vt 0.425763 0.733501
vt 0.417553 0.950144
vt 0.417553 0.736602
vt 0.285877 0.945252
vt 0.285877 0.753020
vt 0.256878 0.949699
vt 0.256878 0.748573
vt 0.231440 0.766885
vt 0.231440 0.931387
vt 0.884604 0.767835
vt 0.899539 0.752867
vt 0.917848 0.771458
vt 0.902915 0.786368
vt 0.880157 0.756434
vt 0.888115 0.748421
vt 0.888115 0.442516
vt 0.899539 0.438070
vt 0.724549 0.756434
vt 0.720102 0.767835
vt 0.880157 0.434503
vt 0.884604 0.423102
vt 0.716590 0.748421
vt 0.705167 0.752867
vt 0.724549 0.434503
vt 0.720102 0.423102
vt 0.902915 0.404569
vt 0.917848 0.419479
vt 0.701790 0.786368
vt 0.686858 0.771458
vt 0.716590 0.442516
vt 0.705167 0.438070
vt 0.686858 0.419479
vt 0.701790 0.404569
vn -0.998535 -0.054105 0.000000
vn -0.998535 -0.054105 0.000000
vn -0.998535 -0.054105 0.000000
vn -0.998535 -0.054105 0.000000
vn 0.000000 -1.000000 0.000000
vn 0.000000 -1.000000 0.000000
vn 0.000000 -1.000000 0.000000
vn 0.000000 -1.000000 0.000000
vn 0.000000 -0.184911 0.982755
vn 0.000000 -0.184911 0.982755
vn 0.000000 -0.184911 0.982755
vn 0.000000 -0.184911 0.982755
vn 0.989438 -0.144959 0.000000
vn 0.989438 -0.144959 0.000000
vn 0.989438 -0.144959 0.000000
vn 0.989438 -0.144959 0.000000
vn 0.000000 -0.588849 0.808243
vn 0.000000 -0.588849 0.808243
vn 0.000000 -0.588849 0.808243
vn 0.000000 -0.588849 0.808243
vn 0.812070 -0.583560 0.000000
vn 0.812070 -0.583560 0.000000
vn 0.812070 -0.583560 0.000000
vn 0.812070 -0.583560 0.000000
vn 0.000000 -0.184911 -0.982755
vn 0.000000 -0.184911 -0.982755
vn 0.000000 -0.184911 -0.982755
vn 0.000000 -0.184911 -0.982755
vn -0.000000 -0.588850 -0.808243
vn -0.000000 -0.588850 -0.808243
vn -0.000000 -0.588850 -0.808243
vn -0.000000 -0.588850 -0.808243
vn -0.812070 -0.583560 0.000000
vn -0.812070 -0.583560 0.000000
vn -0.812070 -0.583560 0.000000
vn -0.812070 -0.583560 0.000000
vn 0.993299 -0.115577 0.000000
vn 0.993299 -0.115577 0.000000
vn 0.993299 -0.115577 0.000000
vn 0.993299 -0.115577 0.000000
vn -0.000154 -0.112926 -0.993604
vn -0.000154 -0.112926 -0.993604
vn -0.000154 -0.112926 -0.993604
vn -0.000154 -0.112926 -0.993603
vn 0.000000 1.000000 0.000000
vn 0.000000 1.000000 0.000000
vn 0.000000 1.000000 0.000000
vn 0.000000 1.000000 0.000000
vn -0.999432 -0.033692 0.000000
vn -0.999432 -0.033692 0.000000
vn -0.999432 -0.033692 0.000000
vn -0.999432 -0.033692 0.000000
vn -0.000154 -0.112926 0.993603
vn -0.000154 -0.112926 0.993604
vn -0.000154 -0.112926 0.993604
vn -0.000154 -0.112926 0.993604
vn -0.691603 -0.173378 0.701160
vn -0.691603 -0.173378 0.701160
vn -0.691603 -0.173378 0.701160
vn -0.691603 -0.173378 0.701160
vn -0.651320 -0.758804 0.000000
vn -0.651320 -0.758804 0.000000
vn -0.651320 -0.758804 0.000000
vn -0.651320 -0.758804 0.000000
vn 0.001049 -0.768409 0.639958
vn 0.001049 -0.768409 0.639958
vn 0.001049 -0.768409 0.639958
vn 0.001049 -0.768409 0.639958
vn 0.634213 -0.773158 0.000000
vn 0.634213 -0.773158 0.000000
vn 0.634213 -0.773158 0.000000
vn 0.634213 -0.773158 0.000000
vn 0.694710 -0.232134 0.680802
vn 0.694710 -0.232134 0.680802
vn 0.694710 -0.232134 0.680802
vn 0.694710 -0.232134 0.680802
vn 0.494495 -0.715485 0.493514
vn 0.494495 -0.715485 0.493514
vn 0.494495 -0.715485 0.493514
vn 0.494495 -0.715485 0.493514
vn -0.691603 -0.173378 -0.701160
vn -0.691603 -0.173378 -0.701160
vn -0.691603 -0.173378 -0.701160
vn -0.691603 -0.173378 -0.701160
vn 0.001048 -0.768409 -0.639958
vn 0.001048 -0.768409 -0.639958
vn 0.001048 -0.768409 -0.639958
vn 0.001048 -0.768409 -0.639958
vn 0.694710 -0.232134 -0.680802
vn 0.694710 -0.232134 -0.680802
vn 0.694710 -0.232134 -0.680802
vn 0.694710 -0.232134 -0.680802
vn -0.494494 -0.715485 -0.493515
vn -0.494494 -0.715485 -0.493515
vn -0.494494 -0.715485 -0.493515
vn -0.494494 -0.715485 -0.493515
vn 0.494495 -0.715485 -0.493514
vn 0.494495 -0.715485 -0.493514
vn 0.494495 -0.715485 -0.493514
vn 0.494495 -0.715485 -0.493514
vn -0.494495 -0.715485 0.493513
vn -0.494495 -0.715485 0.493513
vn -0.494495 -0.715485 0.493513
vn -0.494495 -0.715485 0.493513
vn 0.308722 0.951152 0.000000
vn 0.308722 0.951152 0.000000
vn 0.308722 0.951152 0.000000
vn 0.308722 0.951152 0.000000
vn 0.697842 -0.160535 -0.698029
vn 0.697842 -0.160535 -0.698029
vn 0.697842 -0.160535 -0.698029
vn 0.697842 -0.160535 -0.698029
vn 0.000000 0.963625 -0.267259
vn 0.000000 0.963625 -0.267259
vn 0.000000 0.963625 -0.267259
vn 0.000000 0.963625 -0.267259
vn -0.308723 0.951152 0.000000
vn -0.308723 0.951152 0.000000
vn -0.308723 0.951152 0.000000
vn -0.308723 0.951152 0.000000
vn -0.708178 -0.103594 -0.698393
vn -0.708178 -0.103594 -0.698393
vn -0.708178 -0.103594 -0.698393
vn -0.708178 -0.103594 -0.698393
vn 0.697843 -0.160535 0.698029
vn 0.697843 -0.160535 0.698029
vn 0.697843 -0.160535 0.698029
vn 0.697843 -0.160535 0.698029
vn 0.000000 0.963625 0.267259
vn 0.000000 0.963625 0.267259
vn 0.000000 0.963625 0.267259
vn 0.000000 0.963625 0.267259
vn -0.708178 -0.103594 0.698393
vn -0.708178 -0.103594 0.698393
vn -0.708178 -0.103594 0.698393
vn -0.708178 -0.103594 0.698393
vn -0.673724 -0.347871 0.651983
vn -0.673724 -0.347871 0.651983
vn -0.673724 -0.347871 0.651983
vn 0.678138 -0.347548 0.647564
vn 0.678138 -0.347548 0.647564
vn 0.678138 -0.347548 0.647564
vn -0.673724 -0.347871 -0.651983
vn -0.673724 -0.347871 -0.651983
vn -0.673724 -0.347871 -0.651983
vn 0.678139 -0.347547 -0.647564
vn 0.678139 -0.347547 -0.647564
vn 0.678139 -0.347547 -0.647564
vn 0.234762 0.943207 -0.235049
vn 0.234762 0.943207 -0.235049
vn 0.234762 0.943207 -0.235049
vn -0.235994 0.943757 -0.231579
vn -0.235994 0.943757 -0.231579
vn -0.235994 0.943757 -0.231579
vn 0.234761 0.943206 0.235054
vn 0.234761 0.943206 0.235054
vn 0.234761 0.943206 0.235054
vn -0.235994 0.943758 0.231577
vn -0.235994 0.943758 0.231577
vn -0.235994 0.943758 0.231577
vn -0.824719 0.565543 0.000000
vn -0.824719 0.565543 0.000000
vn -0.824719 0.565543 0.000000
vn -0.824719 0.565543 0.000000
vn -0.844397 -0.535719 0.000000
vn -0.844397 -0.535719 0.000000
vn -0.844397 -0.535719 0.000000
vn -0.844397 -0.535719 0.000000
vn 0.000000 -0.300453 0.953797
vn 0.000000 -0.300453 0.953797
vn 0.000000 -0.300453 0.953797
vn 0.000000 -0.300453 0.953797
vn 0.003872 0.410800 0.911717
vn 0.003872 0.410800 0.911717
vn 0.003872 0.410800 0.911717
vn 0.003872 0.410800 0.911717
vn 0.843095 -0.537764 0.000000
vn 0.843095 -0.537764 0.000000
vn 0.843095 -0.537764 0.000000
vn 0.843095 -0.537764 0.000000
vn 0.821881 0.569659 0.000000
vn 0.821881 0.569659 0.000000
vn 0.821881 0.569659 0.000000
vn 0.821881 0.569659 0.000000
vn 0.003872 0.410801 -0.911717
vn 0.003872 0.410801 -0.911717
vn 0.003872 0.410801 -0.911717
vn 0.003872 0.410801 -0.911717
vn 0.000000 -0.300452 -0.953797
vn 0.000000 -0.300452 -0.953797
vn 0.000000 -0.300452 -0.953797
vn 0.000000 -0.300452 -0.953797
vn -0.653858 0.385241 0.651198
vn -0.653858 0.385241 0.651198
vn -0.653858 0.385241 0.651198
vn -0.653858 0.385241 0.651198
vn 0.663613 0.378618 0.645187
vn 0.663613 0.378618 0.645187
vn 0.663613 0.378618 0.645187
vn 0.663613 0.378618 0.645187
vn -0.653858 0.385241 -0.651198
vn -0.653858 0.385241 -0.651198
vn -0.653858 0.385241 -0.651198
vn -0.653858 0.385241 -0.651198
vn 0.663613 0.378618 -0.645187
vn 0.663613 0.378618 -0.645187
vn 0.663613 0.378618 -0.645187
vn 0.663613 0.378618 -0.645187
vn 0.051268 0.372240 0.926720
vn -0.051268 0.372240 0.926720
vn -0.050300 0.372129 0.926817
vn 0.050300 0.372129 0.926817
vn 0.000216 -0.999995 -0.003266
vn -0.000216 -0.999995 -0.003266
vn -0.000204 -0.999995 -0.003282
vn 0.000204 -0.999995 -0.003282
vn 0.928256 0.370740 -0.029892
vn 0.928256 0.370740 0.029892
vn 0.928300 0.370673 0.029339
vn 0.928300 0.370673 -0.029339
vn -0.000258 -1.000000 -0.000017
vn -0.000258 -1.000000 0.000017
vn -0.000252 -1.000000 0.000016
vn -0.000252 -1.000000 -0.000016
vn -0.051268 0.372240 -0.926720
vn 0.051268 0.372240 -0.926719
vn 0.050300 0.372129 -0.926817
vn -0.050300 0.372129 -0.926817
vn -0.000216 -0.999995 0.003266
vn 0.000216 -0.999995 0.003266
vn 0.000204 -0.999995 0.003281
vn -0.000205 -0.999995 0.003282
vn -0.928256 0.370740 0.029892
vn -0.928256 0.370740 -0.029892
vn -0.928300 0.370673 -0.029339
vn -0.928300 0.370673 0.029339
vn 0.000258 -1.000000 0.000016
vn 0.000258 -1.000000 -0.000017
vn 0.000252 -1.000000 -0.000016
vn 0.000252 -1.000000 0.000016
vn -0.999348 -0.036101 0.000000
vn -0.999348 -0.036101 0.000000
vn -0.999348 -0.036101 0.000000
vn -0.999348 -0.036101 0.000000
vn -0.705662 -0.111086 0.699786
vn -0.705662 -0.111086 0.699786
vn -0.705662 -0.111086 0.699786
vn -0.705662 -0.111086 0.699786
vn 0.000000 -0.120901 0.992665
vn 0.000000 -0.120901 0.992665
vn 0.000000 -0.120901 0.992665
vn 0.000000 -0.120901 0.992665
vn 0.696520 -0.171699 0.696692
vn 0.696520 -0.171699 0.696692
vn 0.696520 -0.171699 0.696692
vn 0.696520 -0.171699 0.696692
vn 0.992316 -0.123727 0.000000
vn 0.992316 -0.123727 0.000000
vn 0.992316 -0.123727 0.000000
vn 0.992316 -0.123727 0.000000
vn 0.696521 -0.171699 -0.696691
vn 0.696521 -0.171699 -0.696691
vn 0.696521 -0.171699 -0.696691
vn 0.696521 -0.171699 -0.696691
vn 0.000000 -0.120901 -0.992665
vn 0.000000 -0.120901 -0.992665
vn 0.000000 -0.120901 -0.992665
vn 0.000000 -0.120901 -0.992665
vn -0.705662 -0.111086 -0.699787
vn -0.705662 -0.111086 -0.699787
vn -0.705662 -0.111086 -0.699787
vn -0.705662 -0.111086 -0.699787
vn 0.733379 -0.679548 0.019227
vn 0.733379 -0.679548 -0.019227
vn 0.733387 -0.679541 -0.019190
vn 0.733387 -0.679541 0.019190
vn 0.756047 0.653956 -0.027087
vn 0.756047 0.653956 0.027087
vn 0.755585 0.654935 0.012341
vn 0.755585 0.654935 -0.012341
vn 0.032110 -0.676197 -0.736021
vn -0.034899 -0.675654 -0.736392
vn -0.035404 -0.675738 -0.736291
vn 0.032006 -0.676176 -0.736044
vn -0.037351 0.533822 -0.844772
vn 0.041014 0.532186 -0.845633
vn 0.035143 0.531659 -0.846229
vn -0.031647 0.533012 -0.845515
vn -0.754021 -0.656577 -0.018915
vn -0.754021 -0.656578 0.018915
vn -0.754079 -0.656519 0.018620
vn -0.754079 -0.656519 -0.018620
vn -0.715253 0.698350 0.026845
vn -0.715253 0.698350 -0.026845
vn -0.714437 0.699601 -0.011740
vn -0.714437 0.699601 0.011740
vn 0.041014 0.532188 0.845632
vn -0.037351 0.533824 0.844771
vn -0.031647 0.533014 0.845514
vn 0.035143 0.531661 0.846228
vn -0.034899 -0.675654 0.736393
vn 0.032110 -0.676196 0.736022
vn 0.032006 -0.676176 0.736045
vn -0.035405 -0.675737 0.736292
s off
g pCube2
usemtl pCube2SG
f 19/1/1 16/2/2 10/3/3 2/4/4
f 9/17/5 14/18/6 4/19/7 3/20/8
f 6/25/9 7/26/10 20/27/11 1/28/12
f 13/38/13 17/39/14 8/40/15 5/41/16
f 53/147/17 54/146/18 55/145/19 56/148/20
f 57/81/21 58/78/22 59/77/23 60/82/24
f 15/48/25 18/49/26 12/50/27 11/51/28
f 61/101/29 62/99/30 63/98/31 64/102/32
f 65/134/33 66/132/34 67/131/35 68/135/36
f 77/58/37 78/59/38 79/60/39 80/61/40
f 81/84/41 82/85/42 83/86/43 84/87/44
f 25/104/45 38/105/46 33/106/47 21/107/48
f 85/120/49 86/121/50 87/122/51 88/123/52
f 89/137/53 90/138/54 91/139/55 92/140/56
f 2/4/57 1/9/58 20/10/59 19/1/60
f 41/12/61 42/8/62 43/7/63 44/13/64
f 45/31/65 41/34/66 46/35/67 47/32/68
f 48/23/69 46/22/70 49/21/71 50/24/72
f 6/25/73 5/29/74 8/30/75 7/26/76
f 53/149/77 60/150/78 59/151/79 54/152/80
f 11/5/81 10/3/82 16/2/83 15/6/84
f 44/54/85 51/53/86 52/52/87 49/55/88
f 13/38/89 12/42/90 18/43/91 17/39/92
f 61/164/93 68/170/94 67/171/95 62/172/96
f 57/156/97 64/160/98 63/165/99 58/166/100
f 65/162/101 56/158/102 55/167/103 66/168/104
f 22/112/105 21/107/106 33/106/107 35/113/108
f 84/66/109 80/61/110 79/60/111 81/67/112
f 21/107/113 23/114/114 26/115/115 25/104/116
f 25/104/117 24/108/118 39/109/119 38/105/120
f 88/90/121 83/86/122 82/85/123 85/91/124
f 92/62/125 78/59/126 77/58/127 89/63/128
f 34/110/129 33/106/130 38/105/131 40/111/132
f 86/121/133 91/126/134 90/127/135 87/122/136
f 45/14/137 42/8/138 41/12/139
f 46/35/140 48/33/141 47/32/142
f 44/13/143 43/7/144 51/11/145
f 52/46/146 50/45/147 49/47/148
f 21/107/149 22/112/150 23/114/151
f 24/108/152 25/104/153 26/115/154
f 33/106/155 34/110/156 35/113/157
f 38/105/158 39/109/159 40/111/160
f 2/4/161 10/3/162 43/7/163 42/8/164
f 9/15/165 3/16/166 41/12/167 44/13/168
f 3/36/169 4/37/170 46/35/171 41/34/172
f 6/25/173 1/28/174 45/31/175 47/32/176
f 4/19/177 14/18/178 49/21/179 46/22/180
f 13/38/181 5/41/182 48/44/183 50/45/184
f 11/51/185 12/50/186 52/52/187 51/53/188
f 14/56/189 9/57/190 44/54/191 49/55/192
f 1/9/193 2/4/194 42/8/195 45/14/196
f 5/29/197 6/25/198 47/32/199 48/33/200
f 10/3/201 11/5/202 51/11/203 43/7/204
f 12/42/205 13/38/206 50/45/207 52/46/208
s 1
f 31/144/209 37/143/210 55/145/211 54/146/212
s 2
f 20/157/213 7/153/214 53/149/215 56/158/216
s 1
f 27/73/217 32/72/218 59/77/219 58/78/220
s 2
f 8/154/221 17/155/222 57/156/223 60/150/224
s 1
f 30/95/225 28/94/226 63/98/227 62/99/228
s 2
f 18/159/229 15/163/230 61/164/231 64/160/232
s 1
f 36/129/233 29/128/234 67/131/235 66/132/236
s 2
f 16/169/237 19/161/238 65/162/239 68/170/240
f 7/153/214 8/154/221 60/150/224 53/149/215
s 1
f 32/72/218 31/76/209 54/80/212 59/77/219
s 2
f 15/163/230 16/169/237 68/170/240 61/164/231
s 1
f 29/100/234 30/95/225 62/99/228 67/103/235
s 2
f 17/155/222 18/159/229 64/160/232 57/156/223
s 1
f 28/79/226 27/73/217 58/78/220 63/83/227
s 2
f 19/161/238 20/157/213 56/158/216 65/162/239
s 1
f 37/133/210 36/129/233 66/132/236 55/136/211
s off
f 29/128/241 36/129/242 70/125/243 69/124/244
f 36/129/245 37/133/246 71/130/247 70/125/248
f 72/142/249 71/141/250 37/143/251 31/144/252
f 31/76/253 32/72/254 73/64/255 72/70/256
f 74/65/257 73/64/258 32/72/259 27/73/260
f 75/74/261 74/65/262 27/73/263 28/79/264
f 28/94/265 30/95/266 76/89/267 75/88/268
f 69/96/269 76/89/270 30/95/271 29/100/272
s 5
f 73/64/273 74/65/274 79/60/275 78/59/276
s 6
f 22/68/277 35/69/278 77/58/279 80/61/280
s 5
f 75/88/281 76/89/282 82/85/283 81/84/284
s 6
f 26/92/285 23/93/286 84/87/287 83/86/288
s 5
f 69/124/289 70/125/290 86/121/291 85/120/292
s 6
f 39/109/293 24/108/294 88/116/295 87/117/296
f 34/110/297 40/111/298 90/118/299 89/119/300
s 5
f 71/141/301 72/142/302 92/140/303 91/139/304
s 6
f 23/75/286 22/68/277 80/61/280 84/66/287
s 5
f 74/65/274 75/74/281 81/67/284 79/60/275
s 6
f 24/97/294 26/92/285 83/86/288 88/90/295
s 5
f 76/89/282 69/96/289 85/91/292 82/85/283
f 72/70/302 73/64/273 78/59/276 92/62/303
s 6
f 35/69/278 34/71/297 89/63/300 77/58/279
s 5
f 70/125/290 71/130/301 91/126/304 86/121/291
s 6
f 40/111/298 39/109/293 87/117/296 90/118/299
